<svg id="logo" version="1.1" viewBox="0 0 512 512" xml:space="preserve" xmlns="http://www.w3.org/2000/svg">
  <style>
    @media (prefers-color-scheme: dark) {
      g { stroke: #ebedf2 }
    }
  </style>
  <g fill="none" stroke="#242933" stroke-linecap="round" stroke-linejoin="round" stroke-width="18">
    <path id="logoUpperLong" d="m368.38 19.42c-8.5017-3.6728-18.598-7.0648-30.24-8.8626-5.7861-0.89356-11.657-1.2321-17.577-1.4302-21.292-0.71289-57.731-0.036155-91.581 33.794-26.548 30.684-47.94 55.637-63.173 70.285-15.234 14.648-28.327 29.958-37.826 46.006-9.4996 16.049-17.913 33.945-11.304 56.417 0.33854 1.1503 0.74589 2.2794 1.2198 3.3808 10.179 23.664 33.468 37.672 66.089 47.654 0.0285 9e-3 0.057 0.017 0.0856 0.0253 21.541 6.5202 42.912 12.306 63.885 18.152 21.227 5.916 40.069 12.076 60.462 18.248-3.2075 5.4189-13.751 20.68-24.479 30.996-49.463 40.41-76.454 57.964-102.9 43.284-1.1651 0-24.324-15.188-49.579-24.463h-4e-3c-23.82-8.7467-45.36-8.2729-59.688-8.1881" />
    <path id="logoUpperMedium" d="m336.12 314.09c-0.58433 1.9651-1.4884 4.6277-3.6166 8.2232-5.4576 9.22-15.48 21.496-27.807 33.349-24.654 23.707-59.588 45.9-81.848 52.141-19.86 5.5677-29.592 5.7976-35.285 4.9182-5.6934-0.87922-10.253-3.1923-21.041-9.1799h-2e-3c-21.323-11.833-31.051-17.278-45.369-22.536h-2e-3c-18.037-6.6232-34.75-6.4399-49.195-6.3544-14.445 0.0855-26.135 1.2276-26.135 1.2276" />
    <path id="logoUpperShort" d="m411.48 74.82h-2e-3c-10.361-3.8048-15.534-6.7934-36.957-18.684-10.791-5.9897-23.617-13.322-40.954-16.001-4.3342-0.66935-8.7681-1.0273-13.361-1.0814-13.78-0.16234-28.993 2.4118-47.219 7.5216" />
    <path id="logoCenter" d="m439.87 107.43c-12.985 0.0768-28.517-0.78128-38.7-4.5213-12.34-4.5316-19.792-8.7474-41.164-20.61-21.58-11.977-34.77-19.293-78.932-6.9115-61.005 17.103-145.81 97.33-135.67 131.78 5.001 11.626 18.529 22.04 47.351 30.859 20.979 6.3502 42.138 12.081 63.251 17.966s42.272 11.615 63.251 17.966c28.822 8.8186 42.349 19.233 47.351 30.859 10.134 34.458-74.671 114.68-135.67 131.78-44.16 12.38-57.351 5.0658-78.932-6.9115-21.374-11.862-28.824-16.078-41.164-20.61-10.184-3.7399-25.715-4.5981-38.7-4.5212" />
    <path id="logoLowerShort" d="m239.01 465.42c-18.226 5.1099-33.438 7.684-47.219 7.5216-4.5934-0.0541-9.0272-0.41208-13.361-1.0814-17.338-2.6781-30.163-10.011-40.954-16.001-21.424-11.89-26.596-14.879-36.957-18.684h-2e-3" />
    <path id="logoLowerMedium" d="m466.18 136.12s-11.689 1.1421-26.135 1.2276c-14.444 0.0855-31.158 0.26881-49.195-6.3544h-2e-3c-14.318-5.2582-24.047-10.702-45.369-22.536h-2e-3c-10.787-5.9876-15.347-8.3007-21.041-9.1799-5.6932-0.87933-15.426-0.64942-35.285 4.9182-22.26 6.2402-57.194 28.434-81.848 52.141-12.326 11.853-22.349 24.129-27.807 33.349-2.1283 3.5955-3.0323 6.2581-3.6166 8.2232" />
    <path id="logoLowerLong" d="m440.24 167.28c-14.327 0.0848-35.868 0.55862-59.688-8.1881h-4e-3c-25.255-9.2743-48.413-24.463-49.579-24.463-26.449-14.679-53.441 2.8741-102.9 43.284-10.727 10.316-21.271 25.577-24.479 30.996 20.393 6.1712 39.235 12.332 60.462 18.248 20.973 5.8452 42.344 11.631 63.885 18.152 0.0286 8e-3 0.0571 0.0163 0.0856 0.0253 32.621 9.9813 55.91 23.99 66.089 47.654 0.47395 1.1014 0.8813 2.2305 1.2198 3.3808 6.6082 22.472-1.8048 40.368-11.304 56.417-9.4993 16.049-22.593 31.358-37.826 46.006-15.233 14.648-36.625 39.601-63.173 70.285-33.85 33.83-70.289 34.507-91.581 33.794-5.9192-0.1981-11.79-0.53668-17.577-1.4302-11.642-1.7978-21.741-5.1898-30.243-8.8626" />
  </g>
</svg>
