<?xml version="1.0" encoding="UTF-8" standalone="no"?>
<!-- Created with Inkscape (http://www.inkscape.org/) -->

<svg
   width="512"
   height="512"
   viewBox="0 0 512 512"
   version="1.1"
   xml:space="preserve"
   inkscape:version="1.3.2 (091e20e, 2023-11-25, custom)"
   sodipodi:docname="final.svg"
   id="svg1"
   xmlns:inkscape="http://www.inkscape.org/namespaces/inkscape"
   xmlns:sodipodi="http://sodipodi.sourceforge.net/DTD/sodipodi-0.dtd"
   xmlns="http://www.w3.org/2000/svg"
   xmlns:svg="http://www.w3.org/2000/svg"><path
     style="fill:none;fill-rule:nonzero;stroke:#000000;stroke-width:18;stroke-linecap:round;stroke-linejoin:round;stroke-miterlimit:5;stroke-dasharray:none;stroke-opacity:1"
     d="m 352.45604,15.377661 c 0,0 -43.43293,-17.3598101 -84.7872,5.254348 -49.70018,27.178016 -51.49179,53.034656 -86.47445,86.697011 -49.35759,47.49477 -64.55381,63.32172 -67.1484,94.96702 2.51942,37.94322 8.38629,58.6799 108.06326,84.55758 55.58907,15.81413 80.35233,17.80756 77.15379,20.60628 -23.21501,20.31313 -22.62953,19.88091 -64.69418,47.92162 -21.70231,14.46697 -34.45812,16.07764 -47.02442,15.50067 -16.1649,-0.74218 -24.64848,-5.50028 -52.7964,-22.87409 -19.76867,-12.20187 -39.151862,-12.75365 -39.151862,-12.75365"
     id="icon0"
     sodipodi:nodetypes="cssccssssc" /><path
     style="fill:none;fill-rule:nonzero;stroke:#000000;stroke-width:18;stroke-linecap:round;stroke-linejoin:round;stroke-dasharray:none;stroke-opacity:1"
     d="M 408.72926,75.823378 C 371.09508,53.957839 359.06093,47.08252 335.02377,43.91116 311.00161,40.741781 285.32649,46.79676 266.4093,57.525101"
     id="icon1"
     sodipodi:nodetypes="csc" /><path
     style="fill:none;fill-rule:nonzero;stroke:#000000;stroke-width:18;stroke-linecap:round;stroke-linejoin:round;stroke-miterlimit:5;stroke-dasharray:none;stroke-opacity:1"
     d="m 437.53213,113.09765 c 0,0 -12.37355,4.92376 -32.78941,-2.57343 -12.36859,-4.54207 -19.8369,-8.76757 -41.26,-20.657371 -21.6303,-12.004805 -34.8507,-19.336566 -79.11397,-6.927474 -35.35352,9.911258 -57.18174,27.111585 -77.33938,45.275945 -17.19437,15.49413 -28.23789,27.5553 -44.96392,45.17479 -9.8724,10.39977 -18.59428,30.23346 -13.68686,41.64243 5.01248,11.65328 18.57128,22.09077 47.46031,30.92999 35.22402,10.77755 88.4476,24.05242 136.16198,39.56637 20.30142,6.60085 36.05041,17.86429 38.73387,31.45442 2.68291,13.58732 -4.89172,22.64426 -11.72708,27.69806 -37.75788,27.91674 -74.22125,57.11011 -88.02044,66.75138 -17.97072,12.5558 -47.55414,22.18716 -70.29973,24.797 -21.22466,2.43532 -34.57885,0.25572 -52.18403,-7.7558 -18.7944,-8.55262 -22.59074,-12.27705 -38.49262,-18.58315 C 94.256636,403.64325 70.437331,402.105 70.437331,402.105"
     id="icon2"
     sodipodi:nodetypes="cssssssssssssssc" /><path
     style="fill:none;fill-rule:nonzero;stroke:#000000;stroke-width:18;stroke-linecap:round;stroke-linejoin:round;stroke-miterlimit:5;stroke-dasharray:none;stroke-opacity:1"
     d="m 464.83225,149.79779 c 0,0 -23.18313,2.9238 -41.93143,1.67725 -11.0212,-0.73277 -22.57094,-4.17246 -38.81649,-14.13687 -14.24137,-8.73511 -18.90166,-13.31607 -38.33733,-20.36669 -19.6213,-7.11796 -34.19914,-6.27504 -57.50592,2.15647 -29.35955,10.62117 -39.92778,22.23319 -59.18319,37.85809 -31.83182,25.83008 -48.47102,48.92115 -48.47102,48.92115"
     id="icon3"
     sodipodi:nodetypes="csssssc" /><path
     style="fill:none;fill-rule:nonzero;stroke:#000000;stroke-width:18;stroke-linecap:round;stroke-linejoin:round;stroke-miterlimit:5;stroke-dasharray:none;stroke-opacity:1"
     d="m 430.5031,184.2021 c 0,0 -25.02624,-0.95426 -44.73657,-8.52664 -12.08019,-4.641 -22.03212,-11.81337 -35.47901,-19.95267 -13.16853,-7.9708 -27.80765,-10.03531 -46.26138,-5.90798 -18.45375,4.12734 -26.47814,10.37734 -42.58505,23.06052 -19.63281,15.45962 -49.32168,44.4318 -47.44946,45.31002 17.50058,8.209 52.68971,17.08136 86.72852,25.89883 28.07893,7.27362 61.00813,11.17631 83.86542,31.174 19.98699,17.48647 21.97922,39.21836 20.48995,55.64719 -1.00702,11.10864 -9.29652,30.65163 -32.57962,47.64091 -24.94205,18.19975 -36.82836,28.53271 -55.92293,47.51962 -24.18027,24.04392 -44.92133,50.82441 -69.05177,64.08661 -24.12806,13.26089 -36.4587,12.82902 -53.19446,12.84807 -16.73575,0.019 -32.03231,-5.20114 -32.03231,-5.20114"
     id="icon4"
     sodipodi:nodetypes="csszsssssssszc" /><path
     style="fill:none;fill-rule:nonzero;stroke:#000000;stroke-width:18;stroke-linecap:round;stroke-linejoin:round;stroke-miterlimit:5;stroke-dasharray:none;stroke-opacity:1"
     d="m 330.79214,325.22212 c -28.17562,23.45911 -43.45697,33.69887 -72.00711,53.20054 -15.58322,10.64439 -35.50464,21.58888 -56.41968,24.39774 -18.38034,2.46842 -39.7428,-0.15627 -57.26683,-10.67399 -19.59019,-11.75793 -31.29851,-18.66925 -56.250266,-24.73658 -23.907178,-5.81336 -41.679408,-2.20259 -41.679408,-2.20259"
     id="icon5"
     sodipodi:nodetypes="cssssc" /><path
     style="fill:none;fill-rule:nonzero;stroke:#000000;stroke-width:18;stroke-linecap:round;stroke-linejoin:round;stroke-miterlimit:5;stroke-dasharray:none;stroke-opacity:1"
     d="m 238.52239,459.49124 c 0,0 -16.45771,8.42585 -39.80636,9.2632 -21.46005,0.76963 -31.96062,1.06414 -53.73298,-8.04459 -24.23495,-10.139 -40.76098,-19.30903 -40.76098,-19.30903"
     id="icon6"
     sodipodi:nodetypes="cssc" /><sodipodi:namedview
     id="namedview1"
     pagecolor="#505050"
     bordercolor="#ffffff"
     borderopacity="1"
     inkscape:showpageshadow="0"
     inkscape:pageopacity="0"
     inkscape:pagecheckerboard="1"
     inkscape:deskcolor="#505050"
     inkscape:document-units="mm"
     inkscape:zoom="1.0520974"
     inkscape:cx="96.473958"
     inkscape:cy="305.58007"
     inkscape:window-width="2560"
     inkscape:window-height="1377"
     inkscape:window-x="2552"
     inkscape:window-y="-8"
     inkscape:window-maximized="1"
     inkscape:current-layer="svg1" /><defs
     id="defs1" /></svg>
