<?xml version="1.0" encoding="UTF-8" standalone="no"?>
<svg
   id="logo"
   version="1.1"
   viewBox="0 0 512 512"
   xml:space="preserve"
   sodipodi:docname="inkscape.svg"
   inkscape:version="1.3.2 (091e20e, 2023-11-25, custom)"
   xmlns:inkscape="http://www.inkscape.org/namespaces/inkscape"
   xmlns:sodipodi="http://sodipodi.sourceforge.net/DTD/sodipodi-0.dtd"
   xmlns="http://www.w3.org/2000/svg"
   xmlns:svg="http://www.w3.org/2000/svg"><defs
     id="defs2"><clipPath
       clipPathUnits="userSpaceOnUse"
       id="logoUpperShortClip"><path
         d="m 227.78634,76.40337 c 5.2071,-6.012157 10.64803,-12.318575 16.32883,-18.886072 7.12823,-7.077151 14.1776,-12.370183 21.05418,-16.318373 2.77478,-1.593142 5.52143,-2.967317 8.23378,-4.151384 l -0.002,0.0032 c 17.51336,-4.740514 32.69745,-7.235871 46.91708,-7.068324 4.99555,0.05886 9.86568,0.450086 14.64062,1.1875 19.13864,2.955656 33.25904,11.087902 43.97071,17.033203 21.44456,11.902167 25.84541,14.485647 35.68159,18.097562 1.22568,0.450477 2.33867,1.162254 3.26172,2.085938 l 0.002,0.002 c 3.51381,3.514563 3.51381,9.211999 0,12.726562 -3.51356,3.511765 -9.20799,3.51266 -12.72266,0.002 l 3.25586,2.082032 C 397.53043,79.204738 391.59633,75.819405 370.19531,63.941406 359.3237,57.907331 347.77554,51.362387 332.21289,48.958984 c -3.90038,-0.602351 -7.90778,-0.927102 -12.10547,-0.976562 -12.5926,-0.148376 -26.97051,2.215984 -44.70312,7.1875 -15.98981,4.482693 -32.07849,11.9032 -47.60797,21.225011 z"
         sodipodi:nodetypes="ccsccssccssccccssccc"
         id="path1" /></clipPath><clipPath
       clipPathUnits="userSpaceOnUse"
       id="logoLowerShortClip"><path
         d="m 284.21386,435.59623 c -5.2071,6.01216 -10.64803,12.31857 -16.32883,18.88607 -7.12823,7.07715 -14.1776,12.37018 -21.05418,16.31837 -2.77478,1.59315 -5.52143,2.96732 -8.23378,4.15139 l 0.002,-0.003 c -17.51336,4.74051 -32.69745,7.23587 -46.91708,7.06832 -4.99555,-0.0589 -9.86568,-0.45008 -14.64062,-1.1875 -19.13864,-2.95565 -33.25904,-11.0879 -43.97071,-17.0332 -21.44456,-11.90217 -25.84541,-14.48565 -35.68159,-18.09756 -1.22568,-0.45048 -2.33867,-1.16226 -3.26172,-2.08594 l -0.002,-0.002 c -3.51381,-3.51456 -3.51381,-9.212 0,-12.72656 3.51356,-3.51177 9.20799,-3.51266 12.72266,-0.002 l -3.25586,-2.08203 c 10.87762,3.99447 16.81172,7.3798 38.21274,19.2578 10.87161,6.03408 22.41977,12.57902 37.98242,14.98243 3.90038,0.60235 7.90778,0.9271 12.10547,0.97656 12.5926,0.14837 26.97051,-2.21599 44.70312,-7.1875 15.98981,-4.48269 32.07849,-11.9032 47.60797,-21.22501 z"
         sodipodi:nodetypes="ccsccssccssccccssccc"
         id="path2" /></clipPath></defs><sodipodi:namedview
     pagecolor="#505050"
     bordercolor="#ffffff"
     borderopacity="1"
     inkscape:showpageshadow="0"
     inkscape:pageopacity="0"
     inkscape:pagecheckerboard="1"
     inkscape:deskcolor="#505050"
     inkscape:zoom="1.6310412"
     inkscape:cx="161.8598"
     inkscape:cy="176.88088"
     inkscape:window-width="2560"
     inkscape:window-height="1377"
     inkscape:window-x="2552"
     inkscape:window-y="-8"
     inkscape:window-maximized="1"
     inkscape:current-layer="logo"
     id="namedview2" /><path
     id="logoUpperLong"
     d="M 368.37692,19.419615 C 359.87524,15.746796 349.77932,12.354787 338.13694,10.557029 332.35085,9.66347 326.47957,9.3248891 320.56037,9.1267826 299.26869,8.4138897 262.82951,9.0906275 228.97942,42.920874 c -26.54786,30.683991 -47.93955,55.636797 -63.17304,70.285276 -15.2335,14.64847 -28.32692,29.95797 -37.82622,46.00648 -9.49961,16.04852 -17.91258,33.9451 -11.30437,56.41683 0.33854,1.15034 0.74589,2.27937 1.21984,3.38081 10.17933,23.66376 33.46808,37.67221 66.08913,47.65353 0.0285,0.009 0.057,0.017 0.0856,0.0253 21.54069,6.52022 42.91238,12.30641 63.88506,18.15159 21.22668,5.916 40.06929,12.0764 60.46196,18.24759 -3.20751,5.41888 -13.75145,20.67968 -24.4788,30.99601 -49.46259,40.4103 -76.45446,57.96387 -102.90332,43.28439 -1.16514,0 -24.32379,-15.18849 -49.57861,-24.46279 h -0.004 c -23.81976,-8.74668 -45.360459,-8.27286 -59.687922,-8.18806"
     style="fill:none;stroke:currentColor;stroke-width:18;stroke-linecap:round;stroke-linejoin:round" /><path
     id="logoUpperMedium"
     d="m 336.11588,314.09013 c -0.58433,1.96507 -1.48835,4.62766 -3.61662,8.22317 -5.45757,9.22 -15.4805,21.4957 -27.8069,33.34908 -24.65379,23.70677 -59.58792,45.90048 -81.84764,52.14069 -19.85964,5.56767 -29.59196,5.79758 -35.28515,4.91825 -5.69337,-0.87922 -10.25333,-3.1923 -21.04067,-9.1799 h -0.002 c -21.32269,-11.83338 -31.051,-17.27756 -45.36947,-22.53572 h -0.002 C 103.10885,374.38248 86.395311,374.56579 71.950845,374.65129 57.505378,374.73679 45.816,375.87893 45.816,375.87893"
     style="fill:none;stroke:currentColor;stroke-width:18;stroke-linecap:round;stroke-linejoin:round" /><path
     style="fill:none;stroke:currentColor;stroke-width:18;stroke-linecap:round;stroke-linejoin:round"
     d="m 411.51176,74.751943 -0.002,-0.002 C 401.15275,70.946694 395.98531,67.962361 374.5625,56.072266 363.77085,50.082572 350.9366,42.743985 333.58594,40.064453 c -4.33767,-0.669883 -8.77643,-1.02787 -13.37305,-1.082031 -13.78987,-0.162483 -29.00804,2.410454 -47.23828,7.521484 -38.76326,10.867158 -76.73683,37.345317 -107.21094,66.648434"
     id="logoUpperShort"
     clip-path="url(#logoUpperShortClip)" /><path
     id="logoCenter"
     d="m 439.86923,107.43347 c -12.98542,0.0768 -28.51692,-0.78128 -38.70025,-4.52126 C 388.82858,98.380565 381.37734,94.164829 360.00464,82.302546 338.42495,70.325159 325.23453,63.009923 281.0731,75.391023 220.06813,92.493575 135.25839,172.72117 145.39872,207.17529 c 5.00096,11.62637 18.5286,22.03971 47.35053,30.85899 20.97867,6.35021 42.13836,12.08139 63.25104,17.96558 21.11268,5.88419 42.27237,11.61537 63.25104,17.96558 28.82193,8.81859 42.34937,19.23262 47.35053,30.85899 10.13433,34.45812 -74.67141,114.68371 -135.67438,131.78427 -44.16043,12.38039 -57.35085,5.06575 -78.93155,-6.91153 -21.37369,-11.86238 -28.82393,-16.07752 -41.16433,-20.60966 -10.18433,-3.73993 -25.71483,-4.59806 -38.700249,-4.52125"
     style="fill:none;stroke:currentColor;stroke-width:18;stroke-linecap:round;stroke-linejoin:round" /><path
     style="fill:none;stroke:currentColor;stroke-width:18;stroke-linecap:round;stroke-linejoin:round"
     d="m 346.23653,398.84726 c -30.47411,29.30312 -68.44768,55.78128 -107.21094,66.64843 -18.23024,5.11103 -33.44841,7.68397 -47.23828,7.52149 -4.59662,-0.0542 -9.03538,-0.41215 -13.37305,-1.08203 -17.35066,-2.67954 -30.18491,-10.01812 -40.97656,-16.00782 -21.42281,-11.89009 -26.59025,-14.87442 -36.94726,-18.67767 l -0.002,-0.002"
     id="logoLowerShort"
     clip-path="url(#logoLowerShortClip)"
     sodipodi:nodetypes="ccssccc" /><path
     id="logoLowerMedium"
     d="m 466.18388,136.12116 c 0,0 -11.68938,1.14214 -26.13485,1.22764 -14.44446,0.0855 -31.158,0.26881 -49.19458,-6.35441 h -0.002 c -14.31847,-5.25816 -24.04678,-10.70234 -45.36947,-22.53572 h -0.002 c -10.78734,-5.9876 -15.3473,-8.30068 -21.04067,-9.179895 -5.69319,-0.87933 -15.42551,-0.64942 -35.28515,4.918245 -22.25972,6.24021 -57.19385,28.43392 -81.84764,52.14069 -12.3264,11.85338 -22.34933,24.12908 -27.8069,33.34908 -2.12827,3.59551 -3.03229,6.2581 -3.61662,8.22317"
     style="fill:none;stroke:currentColor;stroke-width:18;stroke-linecap:round;stroke-linejoin:round"
     sodipodi:nodetypes="cscccccccsc" /><path
     id="logoLowerLong"
     d="m 440.23519,167.28217 c -14.32746,0.0848 -35.86816,0.55862 -59.68792,-8.18806 h -0.004 c -25.25482,-9.2743 -48.41347,-24.46279 -49.57861,-24.46279 -26.44886,-14.67948 -53.44073,2.87409 -102.90332,43.28439 -10.72735,10.31633 -21.27129,25.57713 -24.4788,30.99601 20.39267,6.17119 39.23528,12.33159 60.46196,18.24759 20.97268,5.84518 42.34437,11.63137 63.88506,18.15159 0.0286,0.008 0.0571,0.0163 0.0856,0.0253 32.62105,9.98132 55.9098,23.98977 66.08913,47.65353 0.47395,1.10144 0.8813,2.23047 1.21984,3.38081 6.60821,22.47173 -1.80476,40.36831 -11.30437,56.41683 -9.4993,16.04851 -22.59272,31.35801 -37.82622,46.00648 -15.23349,14.64848 -36.62518,39.60129 -63.17304,70.28528 -33.85009,33.83029 -70.28927,34.50698 -91.58095,33.79409 -5.9192,-0.19811 -11.79048,-0.53669 -17.57657,-1.43025 -11.64238,-1.79776 -21.7383,-5.18977 -30.23998,-8.86259"
     style="fill:none;stroke:currentColor;stroke-width:18;stroke-linecap:round;stroke-linejoin:round"
     sodipodi:nodetypes="ccccccscccccsccsc" /></svg>
