<?xml version="1.0" encoding="UTF-8" standalone="no"?>
<svg
   id="logo"
   version="1.1"
   viewBox="0 0 512 512"
   xml:space="preserve"
   sodipodi:docname="inkscape.svg"
   inkscape:version="1.3.2 (091e20e, 2023-11-25, custom)"
   xmlns:inkscape="http://www.inkscape.org/namespaces/inkscape"
   xmlns:sodipodi="http://sodipodi.sourceforge.net/DTD/sodipodi-0.dtd"
   xmlns="http://www.w3.org/2000/svg"
   xmlns:svg="http://www.w3.org/2000/svg"><defs
     id="defs1">
    
    
    
    
    
    
    
  </defs><sodipodi:namedview
     id="namedview1"
     pagecolor="#505050"
     bordercolor="#ffffff"
     borderopacity="1"
     inkscape:showpageshadow="0"
     inkscape:pageopacity="0"
     inkscape:pagecheckerboard="1"
     inkscape:deskcolor="#505050"
     inkscape:zoom="1.6310412"
     inkscape:cx="197.41991"
     inkscape:cy="308.69852"
     inkscape:window-width="2560"
     inkscape:window-height="1377"
     inkscape:window-x="2552"
     inkscape:window-y="-8"
     inkscape:window-maximized="1"
     inkscape:current-layer="logo" /><path
     id="logoUpperLong"
     d="M 368.37738,19.41962 C 359.8757,15.746801 349.77978,12.354792 338.1374,10.557034 332.35131,9.6634748 326.48003,9.3248939 320.56083,9.1267874 299.26915,8.4138945 262.82997,9.0906323 228.97988,42.920879 202.43202,73.60487 181.04033,98.557676 165.80684,113.20615 c -15.2335,14.64847 -28.32692,29.95797 -37.82622,46.00648 -9.49961,16.04852 -17.91258,33.9451 -11.30437,56.41683 0.33854,1.15034 0.74589,2.27937 1.21984,3.38081 10.17933,23.66376 33.46808,37.67221 66.08913,47.65353 0.0285,0.009 0.057,0.017 0.0856,0.0253 21.54069,6.52022 42.91238,12.30641 63.88506,18.15159 21.22668,5.916 40.06929,12.0764 60.46196,18.24759 -3.20751,5.41888 -13.75145,20.67968 -24.4788,30.99601 -49.46259,40.4103 -76.45446,57.96387 -102.90332,43.28439 -1.16514,0 -24.32379,-15.18849 -49.57861,-24.46279 h -0.004 c -23.81976,-8.74668 -45.360459,-8.27286 -59.687922,-8.18806"
     style="fill:none;stroke:currentColor;stroke-width:18;stroke-linecap:round;stroke-linejoin:round" /><path
     id="logoUpperMedium"
     d="m 336.11634,314.09013 c -0.58433,1.96507 -1.48835,4.62766 -3.61662,8.22317 -5.45757,9.22 -15.4805,21.4957 -27.8069,33.34908 -24.65379,23.70677 -59.58792,45.90048 -81.84764,52.14069 -19.85964,5.56767 -29.59196,5.79758 -35.28515,4.91825 -5.69337,-0.87922 -10.25333,-3.1923 -21.04067,-9.1799 h -0.002 c -21.32269,-11.83338 -31.051,-17.27756 -45.36947,-22.53572 h -0.002 c -18.03658,-6.62322 -34.750119,-6.43991 -49.194585,-6.35441 -14.445467,0.0855 -26.134845,1.22764 -26.134845,1.22764"
     style="fill:none;stroke:currentColor;stroke-width:18;stroke-linecap:round;stroke-linejoin:round" /><path
     id="logoUpperShort"
     d="m 411.48027,74.820409 h -0.002 c -10.36133,-3.804823 -15.5335,-6.793419 -36.95719,-18.683603 -10.79135,-5.989694 -23.61677,-13.32243 -40.95433,-16.000517 -4.33424,-0.669352 -8.76808,-1.027333 -13.36143,-1.081435 -13.78045,-0.162345 -28.99293,2.411778 -47.21852,7.521643"
     style="fill:none;stroke:currentColor;stroke-width:18;stroke-linecap:round;stroke-linejoin:round" /><path
     id="logoCenter"
     d="m 439.86969,107.43347 c -12.98542,0.0768 -28.51692,-0.78128 -38.70025,-4.52126 C 388.82904,98.38057 381.3778,94.164834 360.0051,82.302551 338.42541,70.325164 325.23499,63.009928 281.07356,75.391028 220.06859,92.49358 135.25885,172.72117 145.39918,207.17529 c 5.00096,11.62637 18.5286,22.03971 47.35053,30.85899 20.97867,6.35021 42.13836,12.08139 63.25104,17.96558 21.11268,5.88419 42.27237,11.61537 63.25104,17.96558 28.82193,8.81859 42.34937,19.23262 47.35053,30.85899 10.13433,34.45812 -74.67141,114.68371 -135.67438,131.78427 -44.16043,12.38039 -57.35085,5.06575 -78.93155,-6.91153 -21.37369,-11.86238 -28.82393,-16.07752 -41.16433,-20.60966 -10.18433,-3.73993 -25.71483,-4.59806 -38.700249,-4.52125"
     style="fill:none;stroke:currentColor;stroke-width:18;stroke-linecap:round;stroke-linejoin:round" /><path
     id="logoLowerShort"
     d="m 239.0137,465.4235 c -18.22559,5.10987 -33.43808,7.68399 -47.21852,7.52165 -4.59336,-0.0541 -9.02719,-0.41208 -13.36144,-1.08143 -17.33756,-2.67809 -30.16297,-10.01083 -40.95432,-16.00052 -21.42369,-11.89018 -26.59586,-14.87879 -36.95719,-18.68361 h -0.002"
     style="fill:none;stroke:currentColor;stroke-width:18;stroke-linecap:round;stroke-linejoin:round" /><path
     id="logoLowerMedium"
     d="m 466.18354,136.12107 c 0,0 -11.68938,1.14214 -26.13485,1.22764 -14.44446,0.0855 -31.158,0.26881 -49.19458,-6.35441 h -0.002 c -14.31847,-5.25816 -24.04678,-10.70234 -45.36947,-22.53572 h -0.002 c -10.78734,-5.9876 -15.3473,-8.30068 -21.04068,-9.179898 -5.69318,-0.879328 -15.4255,-0.649421 -35.28514,4.918248 -22.25972,6.24021 -57.19385,28.43392 -81.84764,52.14069 -12.3264,11.85338 -22.34933,24.12908 -27.80691,33.34908 -2.12826,3.59551 -3.03228,6.2581 -3.61661,8.22317"
     style="fill:none;stroke:currentColor;stroke-width:18;stroke-linecap:round;stroke-linejoin:round" /><path
     id="logoLowerLong"
     d="m 440.23781,167.28217 c -14.32746,0.0848 -35.86816,0.55862 -59.68792,-8.18806 h -0.004 c -25.25482,-9.2743 -48.41347,-24.46279 -49.57861,-24.46279 -26.44886,-14.67947 -53.44073,2.87409 -102.90332,43.28439 -10.72735,10.31635 -21.2713,25.57713 -24.4788,30.99601 20.39266,6.1712 39.23527,12.3316 60.46196,18.24759 20.97268,5.84519 42.34436,11.63137 63.88506,18.15159 0.0286,0.008 0.0571,0.0163 0.0856,0.0253 32.62104,9.98132 55.9098,23.98978 66.08913,47.65353 0.47395,1.10144 0.8813,2.23047 1.21984,3.38081 6.60821,22.47173 -1.80476,40.36831 -11.30437,56.41683 -9.4993,16.04851 -22.59273,31.35801 -37.82622,46.00649 -15.23349,14.64846 -36.62518,39.60127 -63.17304,70.28526 -33.85009,33.83019 -70.28927,34.50699 -91.58095,33.79409 -5.9192,-0.1981 -11.79048,-0.53668 -17.57657,-1.43024 -11.64238,-1.79776 -21.74131,-5.18977 -30.24298,-8.86259"
     style="fill:none;stroke:currentColor;stroke-width:18;stroke-linecap:round;stroke-linejoin:round"
     sodipodi:nodetypes="ccccccscccccsccsc" /></svg>
