<svg id="logo" version="1.1" viewBox="0 0 512 512" xml:space="preserve" xmlns="http://www.w3.org/2000/svg">
  <g fill="none" stroke="currentColor" stroke-linecap="round" stroke-linejoin="round" stroke-width="18">
    <path id="logoUpperLong" d="m366.22 19.419c-8.5014-3.6727-18.597-7.0646-30.239-8.8623-5.7859-0.89353-11.657-1.2321-17.576-1.4302-21.291-0.71287-57.729-0.036154-91.578 33.793-26.547 30.683-47.938 55.635-63.171 70.283-15.233 14.648-28.326 29.957-37.825 46.005-9.4993 16.048-17.912 33.944-11.304 56.415 0.33853 1.1503 0.74586 2.2793 1.2198 3.3807 10.179 23.663 33.467 37.671 66.087 47.652 0.0285 9e-3 0.057 0.017 0.0856 0.0253 21.54 6.52 42.911 12.306 63.883 18.151 21.226 5.9158 40.068 12.076 60.46 18.247-3.2074 5.4187-13.751 20.679-24.478 30.995-49.461 40.409-76.452 57.962-102.9 43.283-1.1651 0-24.323-15.188-49.577-24.462h-4e-3c-23.819-8.7464-45.359-8.2726-59.686-8.1878" />
    <path id="logoUpperMedium" d="m333.96 314.08c-0.58431 1.965-1.4883 4.6275-3.6165 8.2229-5.4574 9.2197-15.48 21.495-27.806 33.348-24.653 23.706-59.586 45.899-81.845 52.139-19.859 5.5675-29.591 5.7974-35.284 4.9181-5.6932-0.87919-10.253-3.1922-21.04-9.1796h-2e-3c-21.322-11.833-31.05-17.277-45.368-22.535h-2e-3c-18.036-6.623-34.749-6.4397-49.193-6.3542-14.445 0.0855-26.134 1.2276-26.134 1.2276" />
    <path id="logoUpperShort" d="m409.33 74.818h-2e-3c-10.361-3.8047-15.533-6.7932-36.956-18.683-10.791-5.9895-23.616-13.322-40.953-16-4.3341-0.66933-8.7678-1.0273-13.361-1.0814-13.78-0.16234-28.992 2.4117-47.217 7.5214" />
    <path id="logoCenter" d="m437.71 107.43c-12.985 0.0768-28.516-0.78125-38.699-4.5211-12.34-4.5315-19.791-8.7471-41.163-20.609-21.579-11.977-34.769-19.292-78.929-6.9113-61.003 17.102-145.81 97.327-135.67 131.78 5.0008 11.626 18.528 22.039 47.349 30.858 20.978 6.35 42.137 12.081 63.249 17.965 21.112 5.884 42.271 11.615 63.249 17.965 28.821 8.8183 42.348 19.232 47.349 30.858 10.134 34.457-74.669 114.68-135.67 131.78-44.159 12.38-57.349 5.0656-78.929-6.9113-21.373-11.862-28.823-16.077-41.163-20.609-10.184-3.7398-25.714-4.5979-38.699-4.5211" />
    <path id="logoLowerShort" d="m102.67 437.18h2e-3c10.361 3.8047 15.533 6.7932 36.956 18.683 10.792 5.9895 23.616 13.322 40.953 16 4.3341 0.66933 8.7678 1.0274 13.361 1.0814 13.78 0.16235 28.992-2.4117 47.217-7.5214" />
    <path id="logoLowerMedium" d="m178.04 197.92c0.58431-1.965 1.4883-4.6275 3.6165-8.2229 5.4574-9.2197 15.48-21.495 27.806-33.348 24.653-23.706 59.586-45.899 81.845-52.139 19.859-5.5675 29.591-5.7974 35.284-4.9181 5.6932 0.87919 10.253 3.1922 21.04 9.1796h2e-3c21.322 11.833 31.05 17.277 45.368 22.535h2e-3c18.036 6.623 34.749 6.4397 49.193 6.3542 14.445-0.0855 26.134-1.2276 26.134-1.2276" />
    <path id="logoLowerLong" d="m145.78 492.58c8.5014 3.6727 18.597 7.0646 30.239 8.8624 5.7859 0.89353 11.657 1.2321 17.576 1.4302 21.291 0.71286 57.729 0.0362 91.578-33.793 26.547-30.683 47.938-55.635 63.171-70.283 15.233-14.648 28.326-29.957 37.825-46.005 9.4993-16.048 17.912-33.944 11.304-56.415-0.33852-1.1503-0.74585-2.2793-1.2198-3.3807-10.179-23.663-33.467-37.671-66.087-47.652-0.0285-9e-3 -0.057-0.017-0.0857-0.0253-21.54-6.52-42.911-12.306-63.883-18.151-21.226-5.9158-40.068-12.076-60.46-18.247 3.2074-5.4186 13.751-20.679 24.478-30.995 49.461-40.409 76.452-57.962 102.9-43.283 1.1651 0 24.323 15.188 49.577 24.462h4e-3c23.819 8.7464 45.359 8.2726 59.686 8.1878" />
  </g>
</svg>
