<!-- Padded with with 10% empty space on each size, 409.6px in 512px viewbox -->
<svg id="logo" version="1.1" viewBox="0 0 512 512" xml:space="preserve" xmlns="http://www.w3.org/2000/svg">
  <!-- Background -->
  <rect width="100%" height="100%" fill="#242933" fill-opacity="1" />
  <g fill="none" stroke="#ebedf2" stroke-linecap="round" stroke-linejoin="round" stroke-width="14.4">
    <path id="logoUpperLong" d="m344.18 66.735c-6.8011-2.9382-14.878-5.6517-24.191-7.0898-4.6287-0.71482-9.3256-0.98568-14.061-1.1442-17.033-0.5703-46.183-0.02892-73.262 27.034-21.238 24.546-38.35 44.508-50.537 56.226-12.186 11.718-22.661 23.966-30.26 36.804-7.5994 12.838-14.33 27.155-9.0432 45.132 0.27083 0.92024 0.59669 1.8234 0.97584 2.7046 8.1432 18.93 26.774 30.137 52.87 38.122 0.0228 7e-3 0.0456 0.0136 0.0685 0.0202 17.232 5.216 34.329 9.8448 51.106 14.521 16.981 4.7326 32.054 9.6608 48.368 14.598-2.5659 4.335-11.001 16.543-19.582 24.796-39.569 32.327-61.162 46.37-82.32 34.626-0.93208 0-19.458-12.15-39.662-19.57h-3e-3c-19.055-6.9971-36.287-6.6181-47.749-6.5502" />
    <path id="logoUpperMedium" d="m318.37 302.46c-0.46745 1.572-1.1906 3.702-2.8932 6.5783-4.3659 7.3758-12.384 17.196-22.245 26.678-19.722 18.965-47.669 36.719-65.476 41.711-15.887 4.454-23.673 4.6379-28.227 3.9345-4.5546-0.70335-8.2024-2.5538-16.832-7.3437h-2e-3c-17.058-9.4664-24.84-13.822-36.294-18.028h-2e-3c-14.429-5.2984-27.799-5.1518-39.354-5.0834-11.556 0.0684-20.907 0.98208-20.907 0.98208" />
    <path id="logoUpperShort" d="m378.66 111.05h-2e-3c-8.2888-3.0438-12.426-5.4346-29.565-14.946-8.6328-4.7916-18.893-10.658-32.762-12.8-3.4673-0.53546-7.0142-0.82184-10.689-0.86512-11.024-0.12987-23.194 1.9294-37.774 6.0171" />
    <path id="logoCenter" d="m401.37 137.14c-10.388 0.0614-22.813-0.625-30.959-3.6169-9.872-3.6252-15.833-6.9977-32.93-16.487-17.263-9.5816-27.815-15.434-63.143-5.529-48.802 13.682-116.65 77.862-108.54 105.42 4.0006 9.3008 14.822 17.631 37.879 24.686 16.782 5.08 33.71 9.6648 50.599 14.372s33.817 9.292 50.599 14.372c23.057 7.0546 33.878 15.386 37.879 24.686 8.1072 27.566-59.735 91.744-108.54 105.42-35.327 9.904-45.879 4.0525-63.143-5.529-17.098-9.4896-23.058-12.862-32.93-16.487-8.1472-2.9918-20.571-3.6783-30.959-3.6169" />
    <path id="logoLowerShort" d="m133.34 400.94h2e-3c8.2888 3.0438 12.426 5.4346 29.565 14.946 8.6336 4.7916 18.893 10.658 32.762 12.8 3.4673 0.53546 7.0142 0.82192 10.689 0.86512 11.024 0.12988 23.194-1.9294 37.774-6.0171" />
    <path id="logoLowerMedium" d="m193.63 209.54c0.46745-1.572 1.1906-3.702 2.8932-6.5783 4.3659-7.3758 12.384-17.196 22.245-26.678 19.722-18.965 47.669-36.719 65.476-41.711 15.887-4.454 23.673-4.6379 28.227-3.9345 4.5546 0.70335 8.2024 2.5538 16.832 7.3437h2e-3c17.058 9.4664 24.84 13.822 36.294 18.028h2e-3c14.429 5.2984 27.799 5.1518 39.354 5.0834 11.556-0.0684 20.907-0.98208 20.907-0.98208" />
    <path id="logoLowerLong" d="m167.82 445.26c6.8011 2.9382 14.878 5.6517 24.191 7.0899 4.6287 0.71483 9.3256 0.98568 14.061 1.1442 17.033 0.57029 46.183 0.029 73.262-27.034 21.238-24.546 38.35-44.508 50.537-56.226s22.661-23.966 30.26-36.804c7.5994-12.838 14.33-27.155 9.0432-45.132-0.27082-0.92024-0.59668-1.8234-0.97584-2.7046-8.1432-18.93-26.774-30.137-52.87-38.122-0.0228-7e-3 -0.0456-0.0136-0.0686-0.0202-17.232-5.216-34.329-9.8448-51.106-14.521-16.981-4.7326-32.054-9.6608-48.368-14.598 2.5659-4.3349 11.001-16.543 19.582-24.796 39.569-32.327 61.162-46.37 82.32-34.626 0.93208 0 19.458 12.15 39.662 19.57h3e-3c19.055 6.9971 36.287 6.6181 47.749 6.5502" />
  </g>
</svg>
