<!-- Padded with with 10% empty space on each size, 409.6px in a 512px viewbox -->
<svg id="logo" version="1.1" viewBox="0 0 512 512" xml:space="preserve" xmlns="http://www.w3.org/2000/svg">
  <defs>
    <clipPath id="logoUpperShortClip">
      <path d="m233.43 112.32c4.1657-4.8097 8.5184-9.8548 13.063-15.109 5.7026-5.6617 11.342-9.8961 16.843-13.055 2.2198-1.2745 4.4171-2.3739 6.587-3.3211l-2e-3 0.0026c14.011-3.7924 26.158-5.7887 37.534-5.6547 3.9964 0.04709 7.8925 0.36007 11.712 0.95 15.311 2.3645 26.607 8.8703 35.177 13.627 17.156 9.5217 20.676 11.589 28.545 14.478 0.98055 0.36039 1.8709 0.92981 2.6094 1.6688l2e-3 2e-3c2.811 2.8117 2.811 7.3696 0 10.181-2.8108 2.8094-7.3664 2.8101-10.178 2e-3l2.6047 1.6656c-8.7021-3.1955-13.449-5.9038-30.57-15.406-8.6973-4.8273-17.936-10.063-30.386-11.986-3.1203-0.48188-6.3262-0.74168-9.6844-0.78125-10.074-0.1187-21.576 1.7728-35.762 5.75-12.792 3.5862-25.663 9.5226-38.086 16.98z" />
    </clipPath>
    <clipPath id="logoLowerShortClip">
      <path d="m278.57 399.68c-4.1657 4.8097-8.5184 9.8549-13.063 15.109-5.7026 5.6617-11.342 9.8961-16.843 13.055-2.2198 1.2745-4.4172 2.3738-6.587 3.3211l2e-3 -2e-3c-14.011 3.7924-26.158 5.7887-37.534 5.6546-3.9964-0.0471-7.8925-0.36006-11.712-0.95-15.311-2.3645-26.607-8.8703-35.177-13.627-17.156-9.5217-20.676-11.589-28.545-14.478-0.98054-0.36038-1.8709-0.9298-2.6094-1.6688l-2e-3 -2e-3c-2.811-2.8116-2.811-7.3696 0-10.181 2.8108-2.8094 7.3664-2.8101 10.178-2e-3l-2.6047-1.6656c8.7021 3.1956 13.449 5.9038 30.57 15.406 8.6973 4.8273 17.936 10.063 30.386 11.986 3.1203 0.48188 6.3262 0.74169 9.6844 0.78125 10.074 0.1187 21.576-1.7728 35.762-5.75 12.792-3.5862 25.663-9.5226 38.086-16.98z" />
    </clipPath>
  </defs>
  <!-- Background -->
  <rect width="100%" height="100%" fill="currentColor" fill-opacity="0" />
  <g fill="none" stroke="currentColor" stroke-linecap="round" stroke-linejoin="round" stroke-width="14.4">
    <path id="logoUpperLong" d="m345.9 66.736c-6.8013-2.9383-14.878-5.6519-24.192-7.0901-4.6289-0.71485-9.3259-0.98571-14.061-1.1442-17.033-0.57031-46.185-0.02892-73.265 27.035-21.238 24.547-38.352 44.509-50.538 56.228-12.187 11.719-22.662 23.966-30.261 36.805-7.5997 12.839-14.33 27.156-9.0435 45.133 0.27083 0.92027 0.59671 1.8235 0.97587 2.7046 8.1435 18.931 26.774 30.138 52.871 38.123 0.0228 7e-3 0.0456 0.0136 0.0685 0.0202 17.233 5.2162 34.33 9.8451 51.108 14.521 16.981 4.7328 32.055 9.6611 48.37 14.598-2.566 4.3351-11.001 16.544-19.583 24.797-39.57 32.328-61.164 46.371-82.323 34.628-0.93212 0-19.459-12.151-39.663-19.57h-3e-3c-19.056-6.9973-36.288-6.6183-47.75-6.5504" />
    <path id="logoUpperMedium" d="m320.09 302.47c-0.46746 1.5721-1.1907 3.7021-2.8933 6.5785-4.3661 7.376-12.384 17.197-22.246 26.679-19.723 18.965-47.67 36.72-65.478 41.713-15.888 4.4541-23.674 4.6381-28.228 3.9346-4.5547-0.70337-8.2027-2.5538-16.833-7.3439h-2e-3c-17.058-9.4667-24.841-13.822-36.296-18.029h-2e-3c-14.429-5.2986-27.8-5.1519-39.356-5.0835-11.556 0.0684-20.908 0.98211-20.908 0.98211" />
    <path id="logoUpperShort" d="m380.41 111-2e-3 -2e-3c-8.2856-3.0426-12.42-5.4301-29.558-14.942-8.6333-4.7918-18.901-10.663-32.781-12.806-3.4701-0.53591-7.0211-0.8223-10.698-0.86562-11.032-0.12999-23.206 1.9284-37.791 6.0172-31.011 8.6937-61.389 29.876-85.769 53.319" clip-path="url(#logoUpperShortClip)" />
    <path id="logoCenter" d="m403.1 137.15c-10.388 0.0614-22.814-0.62502-30.96-3.617-9.8723-3.6253-15.833-6.9979-32.931-16.488-17.264-9.5819-27.816-15.434-63.145-5.5292-48.804 13.682-116.65 77.864-108.54 105.43 4.0008 9.3011 14.823 17.632 37.88 24.687 16.783 5.0802 33.711 9.6651 50.601 14.372 16.89 4.7074 33.818 9.2923 50.601 14.372 23.058 7.0549 33.88 15.386 37.88 24.687 8.1075 27.566-59.737 91.747-108.54 105.43-35.328 9.9043-45.881 4.0526-63.145-5.5292-17.099-9.4899-23.059-12.862-32.931-16.488-8.1475-2.992-20.572-3.6784-30.96-3.617" />
    <path id="logoLowerShort" d="m328.19 370.28c-24.379 23.442-54.758 44.625-85.769 53.319-14.584 4.0888-26.759 6.1472-37.791 6.0172-3.6773-0.0434-7.2283-0.32972-10.698-0.86562-13.881-2.1436-24.148-8.0145-32.781-12.806-17.138-9.5121-21.272-11.9-29.558-14.942l-2e-3 -2e-3" clip-path="url(#logoLowerShortClip)" />
    <path id="logoLowerMedium" d="m424.15 160.1s-9.3515 0.91371-20.908 0.98211c-11.556 0.0684-24.926 0.21505-39.356-5.0835h-2e-3c-11.455-4.2065-19.237-8.5619-36.296-18.029h-2e-3c-8.6299-4.7901-12.278-6.6405-16.833-7.3439-4.5546-0.70347-12.34-0.51954-28.228 3.9346-17.808 4.9922-45.755 22.747-65.478 41.713-9.8611 9.4827-17.879 19.303-22.246 26.679-1.7026 2.8764-2.4258 5.0065-2.8933 6.5785" />
    <path id="logoLowerLong" d="m403.39 185.03c-11.462 0.0678-28.695 0.4469-47.75-6.5504h-3e-3c-20.204-7.4194-38.731-19.57-39.663-19.57-21.159-11.744-42.753 2.2993-82.323 34.628-8.5819 8.2531-17.017 20.462-19.583 24.797 16.314 4.937 31.388 9.8653 48.37 14.598 16.778 4.6761 33.875 9.3051 51.108 14.521 0.0229 6e-3 0.0457 0.013 0.0685 0.0202 26.097 7.985 44.728 19.192 52.871 38.123 0.37916 0.88116 0.70504 1.7844 0.97587 2.7046 5.2866 17.977-1.4438 32.295-9.0435 45.133-7.5994 12.839-18.074 25.086-30.261 36.805-12.187 11.719-29.3 31.681-50.538 56.228-27.08 27.064-56.231 27.606-73.265 27.035-4.7354-0.15849-9.4324-0.42936-14.061-1.1442-9.3139-1.4382-17.391-4.1518-24.192-7.0901" />
  </g>
</svg>
