<!-- Padded with with 10% empty space on each size, 409.6px in a 512px viewbox -->
<svg id="logo" version="1.1" viewBox="0 0 512 512" xml:space="preserve" xmlns="http://www.w3.org/2000/svg">
  <!-- Background -->
  <rect width="100%" height="100%" fill="currentColor" fill-opacity="0" />
  <g fill="none" stroke="currentColor" stroke-linecap="round" stroke-linejoin="round" stroke-width="14.4">
    <path id="logoUpperLong" d="m345.9 66.736c-6.8013-2.9383-14.878-5.6519-24.192-7.0901-4.6289-0.71485-9.3259-0.98571-14.061-1.1442-17.033-0.57031-46.185-0.02892-73.265 27.035-21.238 24.547-38.352 44.509-50.538 56.228-12.187 11.719-22.662 23.966-30.261 36.805-7.5997 12.839-14.33 27.156-9.0435 45.133 0.27085 0.92028 0.59672 1.8235 0.97588 2.7046 8.1435 18.931 26.774 30.138 52.871 38.123 0.0228 7e-3 0.0456 0.0136 0.0685 0.0202 17.233 5.2162 34.33 9.8451 51.108 14.521 16.981 4.7328 32.055 9.6611 48.37 14.598-2.566 4.3351-11.001 16.544-19.583 24.797-39.57 32.328-61.164 46.371-82.323 34.628-0.9321 0-19.459-12.151-39.663-19.57h-3e-3c-19.056-6.9973-36.288-6.6183-47.75-6.5504" />
    <path id="logoUpperMedium" d="m320.09 302.47c-0.46746 1.5721-1.1907 3.7021-2.8933 6.5785-4.366 7.376-12.384 17.197-22.246 26.679-19.723 18.965-47.67 36.72-65.478 41.713-15.888 4.4541-23.674 4.6381-28.228 3.9346-4.5547-0.70337-8.2027-2.5538-16.833-7.3439h-2e-3c-17.058-9.4667-24.841-13.822-36.296-18.029h-2e-3c-14.429-5.2986-27.8-5.1519-39.356-5.0835-11.556 0.0684-20.908 0.98211-20.908 0.98211" />
    <path id="logoUpperShort" d="m380.38 111.06h-2e-3c-8.2891-3.0439-12.427-5.4347-29.566-14.947-8.6331-4.7918-18.893-10.658-32.763-12.8-3.4674-0.53548-7.0145-0.82187-10.689-0.86515-11.024-0.12988-23.194 1.9294-37.775 6.0173" />
    <path id="logoCenter" d="m403.1 137.15c-10.388 0.0614-22.814-0.62502-30.96-3.617-9.8723-3.6253-15.833-6.9979-32.931-16.488-17.264-9.5819-27.816-15.434-63.145-5.5292-48.804 13.682-116.65 77.864-108.54 105.43 4.0008 9.3011 14.823 17.632 37.88 24.687 16.783 5.0802 33.711 9.6651 50.601 14.372 16.89 4.7074 33.818 9.2923 50.601 14.372 23.058 7.0549 33.88 15.386 37.88 24.687 8.1075 27.566-59.737 91.747-108.54 105.43-35.328 9.9043-45.881 4.0526-63.145-5.5292-17.099-9.4899-23.059-12.862-32.931-16.488-8.1475-2.992-20.572-3.6784-30.96-3.617" />
    <path id="logoLowerShort" d="m242.41 423.54c-14.58 4.0879-26.75 6.1472-37.775 6.0173-3.6747-0.0433-7.2217-0.32966-10.689-0.86514-13.87-2.1425-24.13-8.0087-32.763-12.8-17.139-9.5121-21.277-11.903-29.566-14.947h-2e-3" />
    <path id="logoLowerMedium" d="m424.15 160.1s-9.3515 0.91371-20.908 0.98211c-11.556 0.0684-24.926 0.21505-39.356-5.0835h-2e-3c-11.455-4.2065-19.237-8.5619-36.296-18.029h-2e-3c-8.6299-4.7901-12.278-6.6405-16.833-7.3439-4.5546-0.70346-12.34-0.51953-28.228 3.9346-17.808 4.9922-45.755 22.747-65.478 41.713-9.8611 9.4827-17.879 19.303-22.246 26.679-1.7026 2.8764-2.4258 5.0065-2.8933 6.5785" />
    <path id="logoLowerLong" d="m403.39 185.03c-11.462 0.0678-28.695 0.4469-47.75-6.5504h-3e-3c-20.204-7.4194-38.731-19.57-39.663-19.57-21.159-11.744-42.753 2.2993-82.323 34.628-8.5819 8.2531-17.017 20.462-19.583 24.797 16.314 4.937 31.388 9.8653 48.37 14.598 16.778 4.6762 33.875 9.3051 51.108 14.521 0.0229 6e-3 0.0457 0.013 0.0685 0.0202 26.097 7.985 44.728 19.192 52.871 38.123 0.37916 0.88115 0.70504 1.7844 0.97587 2.7046 5.2866 17.977-1.4438 32.295-9.0435 45.133-7.5994 12.839-18.074 25.086-30.261 36.805-12.187 11.719-29.3 31.681-50.538 56.228-27.08 27.064-56.231 27.606-73.265 27.035-4.7354-0.15848-9.4324-0.42935-14.061-1.1442-9.3139-1.4382-17.393-4.1518-24.194-7.0901" />
  </g>
</svg>
