<!-- Padded with with 10% empty space on each size, 409.6px in 512px viewbox -->
<svg viewBox="0 0 512 512" version="1.1" xml:space="preserve" xmlns="http://www.w3.org/2000/svg">
  <!-- Background -->
  <rect width="100%" height="100%" fill="currentColor" fill-opacity="0" />
  <g fill="none" stroke="currentColor" stroke-linecap="round" stroke-linejoin="round" stroke-width="14.4">
    <path id="icon0" d="m333.17 63.501s-34.746-13.888-67.83 4.2034c-39.76 21.742-41.194 42.428-69.179 69.358-39.486 37.996-51.643 50.658-53.718 75.974 2.0155 30.354 6.709 46.944 86.448 67.646 44.471 12.651 64.282 14.246 61.723 16.485-18.572 16.25-18.104 15.905-51.755 38.338-17.362 11.574-27.566 12.862-37.619 12.401-12.932-0.59374-19.718-4.4002-42.237-18.299-15.815-9.7616-31.322-10.203-31.322-10.203" />
    <path id="icon1" d="m378.18 111.86c-30.107-17.493-39.734-22.993-58.964-25.53-19.218-2.5355-39.758 2.3085-54.891 10.891" />
    <path id="icon2" d="m401.22 141.68s-9.8992 3.939-26.231-2.0587c-9.8952-3.6337-15.87-7.0141-33.008-16.526-17.304-9.604-27.881-15.47-63.291-5.542-28.283 7.929-45.746 21.69-61.871 36.221-13.755 12.395-22.59 22.044-35.971 36.14-7.8979 8.32-14.875 24.186-10.95 33.314 4.01 9.3224 14.857 17.673 37.968 24.744 28.179 8.6224 70.758 19.242 108.93 31.653 16.241 5.2806 28.84 14.291 30.987 25.163 2.1463 10.87-3.9134 18.115-9.3816 22.158-30.206 22.334-59.377 45.688-70.416 53.401-14.377 10.045-38.043 17.75-56.24 19.838-16.98 1.9482-27.663 0.20458-41.747-6.2046-15.035-6.8421-18.073-9.8216-30.794-14.866-12.603-4.9981-31.659-6.2286-31.659-6.2286" />
    <path id="icon3" d="m423.06 171.04s-18.546 2.339-33.545 1.3418c-8.8168-0.58622-18.057-3.338-31.053-11.31-11.393-6.9881-15.122-10.653-30.67-16.294-15.697-5.6944-27.359-5.02-46.005 1.7252-23.488 8.4968-31.942 17.786-47.346 30.286-25.466 20.664-38.777 39.137-38.777 39.137" />
    <path id="icon4" d="m395.6 198.56s-20.021-0.76341-35.79-6.8213c-9.664-3.7128-17.626-9.4504-28.383-15.962-10.535-6.3766-22.246-8.028-37.009-4.7264-14.763 3.3018-21.182 8.3016-34.068 18.449-15.706 12.368-39.458 35.546-37.959 36.248 14.001 6.5672 42.152 13.665 69.383 20.719 22.463 5.8189 48.806 8.9408 67.092 24.939 15.99 13.989 17.583 31.374 16.392 44.518-0.8056 8.8872-7.4372 24.522-26.064 38.113-19.954 14.56-29.462 22.826-44.738 38.016-19.344 19.235-35.937 40.659-55.242 51.27-19.302 10.609-29.167 10.263-42.555 10.278-13.389 0.0152-25.626-4.1609-25.626-4.1609" />
    <path id="icon5" d="m315.83 311.38c-22.541 18.767-34.766 26.959-57.606 42.561-12.466 8.5152-28.404 17.271-45.136 19.518-14.704 1.9747-31.794-0.12502-45.814-8.5392-15.672-9.4064-25.039-14.935-45-19.79-19.126-4.6507-33.343-1.7621-33.343-1.7621" />
    <path id="icon6" d="m242.02 418.79s-13.166 6.7406-31.845 7.4106c-17.168 0.6157-25.569 0.85128-42.986-6.4357-19.388-8.1112-32.609-15.447-32.609-15.447" />
  </g>
</svg>
